<svg xmlns="http://www.w3.org/2000/svg" viewBox="0 0 31 22" width="31" height="22">
	<style>
		tspan { white-space:pre }
		.shp0 { fill: #000000 } 
	</style>
	<path id="Layer" fill-rule="evenodd" class="shp0" d="M30.25 0L29.94 2.47L29.02 11.17C29.01 12.36 28.54 13.51 27.69 14.36C26.84 15.2 25.7 15.68 24.5 15.68L8.82 15.68C7.63 15.68 6.48 15.2 5.63 14.36C4.78 13.51 4.31 12.36 4.31 11.17L4.31 2.47L0 2.47L0 0L30.25 0ZM27.47 2.47L6.78 2.47L6.78 11.17C6.78 11.71 6.99 12.23 7.38 12.61C7.76 13 8.28 13.21 8.82 13.21L24.5 13.21C25.04 13.21 25.56 13 25.95 12.61C26.33 12.23 26.55 11.71 26.55 11.17L27.47 2.47Z" />
	<path id="Layer" class="shp0" d="M11.22 21.73C12.22 21.73 13.04 20.92 13.04 19.92C13.04 18.91 12.22 18.1 11.22 18.1C10.22 18.1 9.4 18.91 9.4 19.92C9.4 20.92 10.22 21.73 11.22 21.73Z" />
	<path id="Layer" class="shp0" d="M22.1 21.73C23.11 21.73 23.92 20.92 23.92 19.92C23.92 18.91 23.11 18.1 22.1 18.1C21.1 18.1 20.29 18.91 20.29 19.92C20.29 20.92 21.1 21.73 22.1 21.73Z" />
</svg>