<svg xmlns="http://www.w3.org/2000/svg" viewBox="0 0 25 25" width="25" height="25">
	<style>
		tspan { white-space:pre }
		.shp0 { fill: #000000 } 
	</style>
	<path id="Layer" fill-rule="evenodd" class="shp0" d="M24.94 23.31C25 23.46 25.03 23.62 25.03 23.78C25.03 23.95 25 24.11 24.94 24.26C24.88 24.41 24.78 24.55 24.67 24.67C24.55 24.78 24.41 24.88 24.26 24.94C24.11 25 23.95 25.03 23.78 25.03C23.62 25.03 23.46 25 23.31 24.94C23.15 24.88 23.02 24.78 22.9 24.67L16.09 17.85C14.08 19.41 11.56 20.14 9.03 19.9C6.51 19.66 4.17 18.47 2.49 16.57C0.81 14.67 -0.07 12.2 0 9.66C0.08 7.12 1.13 4.71 2.92 2.92C4.72 1.13 7.13 0.08 9.66 0C12.2 -0.07 14.67 0.81 16.57 2.49C18.47 4.17 19.66 6.51 19.9 9.04C20.14 11.56 19.41 14.08 17.85 16.09L24.67 22.9C24.78 23.02 24.88 23.15 24.94 23.31ZM9.99 17.45C11.97 17.44 13.86 16.66 15.26 15.26C16.66 13.86 17.44 11.97 17.45 9.99C17.45 8.52 17.01 7.07 16.19 5.85C15.37 4.62 14.21 3.67 12.84 3.1C11.48 2.54 9.98 2.39 8.54 2.68C7.09 2.96 5.76 3.67 4.72 4.72C3.67 5.76 2.96 7.09 2.68 8.54C2.39 9.98 2.54 11.48 3.1 12.84C3.67 14.21 4.62 15.37 5.85 16.19C7.07 17.01 8.52 17.45 9.99 17.45Z" />
</svg>